{"title":"DJ CoNE - Ataque Ochentoso Vol 2","uid":3377639,"size":114794624,"categoryP":"audio","categoryS":"music","magnet":"?xt=urn:btih:4c9e0053fd7259eb3d7785156b057fc5fc3a3ffa&amp;dn=DJ+CoNE+-+Ataque+Ochentoso+Vol+2&amp;tr=udp%3A%2F%2Ftracker.openbittorrent.com%3A80&amp;tr=udp%3A%2F%2Fopen.demonii.com%3A1337&amp;tr=udp%3A%2F%2Ftracker.coppersurfer.tk%3A6969&amp;tr=udp%3A%2F%2Fexodus.desync.com%3A6969","seeders":0,"leechers":1,"uploader":"benitomdq","files":2,"time":1125597955,"description":"PERFORMER  DJ CoNE \nTITLE  Ataque Ochentoso Vol 2 \nFILE  DJ CoNE - Ataque Ochentoso Vol 2.mp3  MP3\n  TRACK 01 AUDIO\n    TITLE  Okay - Education (12 inch) \n    INDEX 01 00:00:00\n  TRACK 02 AUDIO\n    TITLE  MC Miker G &amp; DJ Sven - Holiday rap (Extended) \n    INDEX 01 05:47:69\n  TRACK 03 AUDIO\n    TITLE  Dimples D - Sucker DJ (Maxi version) \n    INDEX 01 09:07:67\n  TRACK 04 AUDIO\n    TITLE  Milli Vanilli - Keep on running (Club mix) \n    INDEX 01 12:56:52\n  TRACK 05 AUDIO\n    TITLE  Masterblaster feat MIC Schane - This is in (Remix) \n    INDEX 01 17:59:19\n  TRACK 06 AUDIO\n    TITLE  Hithouse - Jack to the sound of the underground (7' mix) \n    INDEX 01 21:36:65\n  TRACK 07 AUDIO\n    TITLE  The Sacados - Ritmo de la noche \n    INDEX 01 23:30:29\n  TRACK 08 AUDIO\n    TITLE  Bizz Nizz - Don't miss the party line (Incrowd version) \n    INDEX 01 28:06:47\n  TRACK 09 AUDIO\n    TITLE  S'Express - Theme from S-Express (12 inch usa mix) \n    INDEX 01 30:45:49\n  TRACK 10 AUDIO\n    TITLE  Deee-Lite - Groove is in the heart (Sampladelic version) \n    INDEX 01 34:20:09\n  TRACK 11 AUDIO\n    TITLE  Hithouse - Move your feet to the rhythm of the beat (Party mix) \n    INDEX 01 37:50:18\n  TRACK 12 AUDIO\n    TITLE  Cappella - Helyon halib (House mix) \n    INDEX 01 40:59:53\n  TRACK 13 AUDIO\n    TITLE  RFTR - I need a fix (Extended) \n    INDEX 01 43:25:01\n  TRACK 14 AUDIO\n    TITLE  Twenty 4 Seven - I can't stand it (Hip House remix) \n    INDEX 01 47:52:05\n  TRACK 15 AUDIO\n    TITLE  2 Static - Boy I'll house ya (Static mix) \n    INDEX 01 51:15:52\n  TRACK 16 AUDIO\n    TITLE  The Mixmaster - Grand piano (12' version) \n    INDEX 01 56:05:52\n  TRACK 17 AUDIO\n    TITLE  Rickster - Night moves (Night house mix) \n    INDEX 01 59:29:65\n  TRACK 18 AUDIO\n    TITLE  Lee Marrow - To go crazy (Mix version) \n    INDEX 01 62:29:48\n  TRACK 19 AUDIO\n    TITLE  Ex-Plain - Check out (Club mix) \n    INDEX 01 66:31:53\n  TRACK 20 AUDIO\n    TITLE  Lee Marrow - Do you want me (Extended version) \n    INDEX 01 71:04:30\n  TRACK 21 AUDIO\n    TITLE  Dynamic Noise - Do you feel alright (Instrumental remix) \n    INDEX 01 75:28:67\n","torrent":{"xt":"urn:btih:4c9e0053fd7259eb3d7785156b057fc5fc3a3ffa","amp;dn":"DJ+CoNE+-+Ataque+Ochentoso+Vol+2","amp;tr":["udp%3A%2F%2Ftracker.openbittorrent.com%3A80","udp%3A%2F%2Fopen.demonii.com%3A1337","udp%3A%2F%2Ftracker.coppersurfer.tk%3A6969","udp%3A%2F%2Fexodus.desync.com%3A6969"],"infoHash":"4c9e0053fd7259eb3d7785156b057fc5fc3a3ffa","infoHashBuffer":{"type":"Buffer","data":[76,158,0,83,253,114,89,235,61,119,133,21,107,5,127,197,252,58,63,250]},"announce":[],"urlList":[]}}